# BubblePrint Test Model: Tetrahedron
v -5.773502826690674 -5.773502826690674 5.773502826690674
v 5.773502826690674 5.773502826690674 5.773502826690674
v -5.773502826690674 5.773502826690674 -5.773502826690674
v 5.773502826690674 -5.773502826690674 -5.773502826690674
v -5.773502826690674 5.773502826690674 -5.773502826690674
v 5.773502826690674 5.773502826690674 5.773502826690674
v 5.773502826690674 -5.773502826690674 -5.773502826690674
v 5.773502826690674 5.773502826690674 5.773502826690674
v -5.773502826690674 -5.773502826690674 5.773502826690674
v 5.773502826690674 -5.773502826690674 -5.773502826690674
v -5.773502826690674 -5.773502826690674 5.773502826690674
v -5.773502826690674 5.773502826690674 -5.773502826690674
vn -0.5773502588272095 0.5773502588272095 0.5773502588272095
vn -0.5773502588272095 0.5773502588272095 0.5773502588272095
vn -0.5773502588272095 0.5773502588272095 0.5773502588272095
vn 0.5773502588272095 0.5773502588272095 -0.5773502588272095
vn 0.5773502588272095 0.5773502588272095 -0.5773502588272095
vn 0.5773502588272095 0.5773502588272095 -0.5773502588272095
vn 0.5773502588272095 -0.5773502588272095 0.5773502588272095
vn 0.5773502588272095 -0.5773502588272095 0.5773502588272095
vn 0.5773502588272095 -0.5773502588272095 0.5773502588272095
vn -0.5773502588272095 -0.5773502588272095 -0.5773502588272095
vn -0.5773502588272095 -0.5773502588272095 -0.5773502588272095
vn -0.5773502588272095 -0.5773502588272095 -0.5773502588272095
f 1//1 2//2 3//3
f 4//4 5//5 6//6
f 7//7 8//8 9//9
f 10//10 11//11 12//12
