# BubblePrint Test Model: Cone
v 0 7.5 0
v 0 7.5 0
v 0 7.5 0
v 0 7.5 0
v 0 7.5 0
v 0 7.5 0
v 0 7.5 0
v 0 7.5 0
v 0 7.5 0
v 0 7.5 0
v 0 7.5 0
v 0 7.5 0
v 0 7.5 0
v 0 7.5 0
v 0 7.5 0
v 0 7.5 0
v 0 7.5 0
v 0 7.5 0
v 0 7.5 0
v 0 7.5 0
v 0 7.5 0
v 0 7.5 0
v 0 7.5 0
v 0 7.5 0
v 0 7.5 0
v 0 7.5 0
v 0 7.5 0
v 0 7.5 0
v 0 7.5 0
v 0 7.5 0
v 0 7.5 0
v 0 7.5 0
v 0 7.5 0
v 0 -7.5 10
v 1.9509031772613525 -7.5 9.807852745056152
v 3.8268344402313232 -7.5 9.238795280456543
v 5.555702209472656 -7.5 8.314696311950684
v 7.071067810058594 -7.5 7.071067810058594
v 8.314696311950684 -7.5 5.555702209472656
v 9.238795280456543 -7.5 3.8268344402313232
v 9.807852745056152 -7.5 1.9509031772613525
v 10 -7.5 6.123233998228043e-16
v 9.807852745056152 -7.5 -1.9509031772613525
v 9.238795280456543 -7.5 -3.8268344402313232
v 8.314696311950684 -7.5 -5.555702209472656
v 7.071067810058594 -7.5 -7.071067810058594
v 5.555702209472656 -7.5 -8.314696311950684
v 3.8268344402313232 -7.5 -9.238795280456543
v 1.9509031772613525 -7.5 -9.807852745056152
v 1.2246467996456087e-15 -7.5 -10
v -1.9509031772613525 -7.5 -9.807852745056152
v -3.8268344402313232 -7.5 -9.238795280456543
v -5.555702209472656 -7.5 -8.314696311950684
v -7.071067810058594 -7.5 -7.071067810058594
v -8.314696311950684 -7.5 -5.555702209472656
v -9.238795280456543 -7.5 -3.8268344402313232
v -9.807852745056152 -7.5 -1.9509031772613525
v -10 -7.5 -1.8369700935892946e-15
v -9.807852745056152 -7.5 1.9509031772613525
v -9.238795280456543 -7.5 3.8268344402313232
v -8.314696311950684 -7.5 5.555702209472656
v -7.071067810058594 -7.5 7.071067810058594
v -5.555702209472656 -7.5 8.314696311950684
v -3.8268344402313232 -7.5 9.238795280456543
v -1.9509031772613525 -7.5 9.807852745056152
v -2.4492935992912173e-15 -7.5 10
v 0 -7.5 0
v 0 -7.5 0
v 0 -7.5 0
v 0 -7.5 0
v 0 -7.5 0
v 0 -7.5 0
v 0 -7.5 0
v 0 -7.5 0
v 0 -7.5 0
v 0 -7.5 0
v 0 -7.5 0
v 0 -7.5 0
v 0 -7.5 0
v 0 -7.5 0
v 0 -7.5 0
v 0 -7.5 0
v 0 -7.5 0
v 0 -7.5 0
v 0 -7.5 0
v 0 -7.5 0
v 0 -7.5 0
v 0 -7.5 0
v 0 -7.5 0
v 0 -7.5 0
v 0 -7.5 0
v 0 -7.5 0
v 0 -7.5 0
v 0 -7.5 0
v 0 -7.5 0
v 0 -7.5 0
v 0 -7.5 0
v 0 -7.5 0
v 0 -7.5 10
v 1.9509031772613525 -7.5 9.807852745056152
v 3.8268344402313232 -7.5 9.238795280456543
v 5.555702209472656 -7.5 8.314696311950684
v 7.071067810058594 -7.5 7.071067810058594
v 8.314696311950684 -7.5 5.555702209472656
v 9.238795280456543 -7.5 3.8268344402313232
v 9.807852745056152 -7.5 1.9509031772613525
v 10 -7.5 6.123233998228043e-16
v 9.807852745056152 -7.5 -1.9509031772613525
v 9.238795280456543 -7.5 -3.8268344402313232
v 8.314696311950684 -7.5 -5.555702209472656
v 7.071067810058594 -7.5 -7.071067810058594
v 5.555702209472656 -7.5 -8.314696311950684
v 3.8268344402313232 -7.5 -9.238795280456543
v 1.9509031772613525 -7.5 -9.807852745056152
v 1.2246467996456087e-15 -7.5 -10
v -1.9509031772613525 -7.5 -9.807852745056152
v -3.8268344402313232 -7.5 -9.238795280456543
v -5.555702209472656 -7.5 -8.314696311950684
v -7.071067810058594 -7.5 -7.071067810058594
v -8.314696311950684 -7.5 -5.555702209472656
v -9.238795280456543 -7.5 -3.8268344402313232
v -9.807852745056152 -7.5 -1.9509031772613525
v -10 -7.5 -1.8369700935892946e-15
v -9.807852745056152 -7.5 1.9509031772613525
v -9.238795280456543 -7.5 3.8268344402313232
v -8.314696311950684 -7.5 5.555702209472656
v -7.071067810058594 -7.5 7.071067810058594
v -5.555702209472656 -7.5 8.314696311950684
v -3.8268344402313232 -7.5 9.238795280456543
v -1.9509031772613525 -7.5 9.807852745056152
v -2.4492935992912173e-15 -7.5 10
vn 0 0.5547001957893372 0.8320503234863281
vn 0.1623249650001526 0.5547001957893372 0.8160626888275146
vn 0.31841185688972473 0.5547001957893372 0.7687142491340637
vn 0.462262362241745 0.5547001957893372 0.6918245553970337
vn 0.588348388671875 0.5547001957893372 0.588348388671875
vn 0.6918245553970337 0.5547001957893372 0.462262362241745
vn 0.7687142491340637 0.5547001957893372 0.31841185688972473
vn 0.8160626888275146 0.5547001957893372 0.1623249650001526
vn 0.8320503234863281 0.5547001957893372 5.0948386576468374e-17
vn 0.8160626888275146 0.5547001957893372 -0.1623249650001526
vn 0.7687142491340637 0.5547001957893372 -0.31841185688972473
vn 0.6918245553970337 0.5547001957893372 -0.462262362241745
vn 0.588348388671875 0.5547001957893372 -0.588348388671875
vn 0.462262362241745 0.5547001957893372 -0.6918245553970337
vn 0.31841185688972473 0.5547001957893372 -0.7687142491340637
vn 0.1623249650001526 0.5547001957893372 -0.8160626888275146
vn 1.0189677315293675e-16 0.5547001957893372 -0.8320503234863281
vn -0.1623249650001526 0.5547001957893372 -0.8160626888275146
vn -0.31841185688972473 0.5547001957893372 -0.7687142491340637
vn -0.462262362241745 0.5547001957893372 -0.6918245553970337
vn -0.588348388671875 0.5547001957893372 -0.588348388671875
vn -0.6918245553970337 0.5547001957893372 -0.462262362241745
vn -0.7687142491340637 0.5547001957893372 -0.31841185688972473
vn -0.8160626888275146 0.5547001957893372 -0.1623249650001526
vn -0.8320503234863281 0.5547001957893372 -1.5284516303812757e-16
vn -0.8160626888275146 0.5547001957893372 0.1623249650001526
vn -0.7687142491340637 0.5547001957893372 0.31841185688972473
vn -0.6918245553970337 0.5547001957893372 0.462262362241745
vn -0.588348388671875 0.5547001957893372 0.588348388671875
vn -0.462262362241745 0.5547001957893372 0.6918245553970337
vn -0.31841185688972473 0.5547001957893372 0.7687142491340637
vn -0.1623249650001526 0.5547001957893372 0.8160626888275146
vn -2.037935463058735e-16 0.5547001957893372 0.8320503234863281
vn 0 0.5547001957893372 0.8320503234863281
vn 0.1623249650001526 0.5547001957893372 0.8160626888275146
vn 0.31841185688972473 0.5547001957893372 0.7687142491340637
vn 0.462262362241745 0.5547001957893372 0.6918245553970337
vn 0.588348388671875 0.5547001957893372 0.588348388671875
vn 0.6918245553970337 0.5547001957893372 0.462262362241745
vn 0.7687142491340637 0.5547001957893372 0.31841185688972473
vn 0.8160626888275146 0.5547001957893372 0.1623249650001526
vn 0.8320503234863281 0.5547001957893372 5.0948386576468374e-17
vn 0.8160626888275146 0.5547001957893372 -0.1623249650001526
vn 0.7687142491340637 0.5547001957893372 -0.31841185688972473
vn 0.6918245553970337 0.5547001957893372 -0.462262362241745
vn 0.588348388671875 0.5547001957893372 -0.588348388671875
vn 0.462262362241745 0.5547001957893372 -0.6918245553970337
vn 0.31841185688972473 0.5547001957893372 -0.7687142491340637
vn 0.1623249650001526 0.5547001957893372 -0.8160626888275146
vn 1.0189677315293675e-16 0.5547001957893372 -0.8320503234863281
vn -0.1623249650001526 0.5547001957893372 -0.8160626888275146
vn -0.31841185688972473 0.5547001957893372 -0.7687142491340637
vn -0.462262362241745 0.5547001957893372 -0.6918245553970337
vn -0.588348388671875 0.5547001957893372 -0.588348388671875
vn -0.6918245553970337 0.5547001957893372 -0.462262362241745
vn -0.7687142491340637 0.5547001957893372 -0.31841185688972473
vn -0.8160626888275146 0.5547001957893372 -0.1623249650001526
vn -0.8320503234863281 0.5547001957893372 -1.5284516303812757e-16
vn -0.8160626888275146 0.5547001957893372 0.1623249650001526
vn -0.7687142491340637 0.5547001957893372 0.31841185688972473
vn -0.6918245553970337 0.5547001957893372 0.462262362241745
vn -0.588348388671875 0.5547001957893372 0.588348388671875
vn -0.462262362241745 0.5547001957893372 0.6918245553970337
vn -0.31841185688972473 0.5547001957893372 0.7687142491340637
vn -0.1623249650001526 0.5547001957893372 0.8160626888275146
vn -2.037935463058735e-16 0.5547001957893372 0.8320503234863281
vn 0 -1 0
vn 0 -1 0
vn 0 -1 0
vn 0 -1 0
vn 0 -1 0
vn 0 -1 0
vn 0 -1 0
vn 0 -1 0
vn 0 -1 0
vn 0 -1 0
vn 0 -1 0
vn 0 -1 0
vn 0 -1 0
vn 0 -1 0
vn 0 -1 0
vn 0 -1 0
vn 0 -1 0
vn 0 -1 0
vn 0 -1 0
vn 0 -1 0
vn 0 -1 0
vn 0 -1 0
vn 0 -1 0
vn 0 -1 0
vn 0 -1 0
vn 0 -1 0
vn 0 -1 0
vn 0 -1 0
vn 0 -1 0
vn 0 -1 0
vn 0 -1 0
vn 0 -1 0
vn 0 -1 0
vn 0 -1 0
vn 0 -1 0
vn 0 -1 0
vn 0 -1 0
vn 0 -1 0
vn 0 -1 0
vn 0 -1 0
vn 0 -1 0
vn 0 -1 0
vn 0 -1 0
vn 0 -1 0
vn 0 -1 0
vn 0 -1 0
vn 0 -1 0
vn 0 -1 0
vn 0 -1 0
vn 0 -1 0
vn 0 -1 0
vn 0 -1 0
vn 0 -1 0
vn 0 -1 0
vn 0 -1 0
vn 0 -1 0
vn 0 -1 0
vn 0 -1 0
vn 0 -1 0
vn 0 -1 0
vn 0 -1 0
vn 0 -1 0
vn 0 -1 0
vn 0 -1 0
vn 0 -1 0
f 1//1 34//34 2//2
f 34//34 35//35 2//2
f 2//2 35//35 3//3
f 35//35 36//36 3//3
f 3//3 36//36 4//4
f 36//36 37//37 4//4
f 4//4 37//37 5//5
f 37//37 38//38 5//5
f 5//5 38//38 6//6
f 38//38 39//39 6//6
f 6//6 39//39 7//7
f 39//39 40//40 7//7
f 7//7 40//40 8//8
f 40//40 41//41 8//8
f 8//8 41//41 9//9
f 41//41 42//42 9//9
f 9//9 42//42 10//10
f 42//42 43//43 10//10
f 10//10 43//43 11//11
f 43//43 44//44 11//11
f 11//11 44//44 12//12
f 44//44 45//45 12//12
f 12//12 45//45 13//13
f 45//45 46//46 13//13
f 13//13 46//46 14//14
f 46//46 47//47 14//14
f 14//14 47//47 15//15
f 47//47 48//48 15//15
f 15//15 48//48 16//16
f 48//48 49//49 16//16
f 16//16 49//49 17//17
f 49//49 50//50 17//17
f 17//17 50//50 18//18
f 50//50 51//51 18//18
f 18//18 51//51 19//19
f 51//51 52//52 19//19
f 19//19 52//52 20//20
f 52//52 53//53 20//20
f 20//20 53//53 21//21
f 53//53 54//54 21//21
f 21//21 54//54 22//22
f 54//54 55//55 22//22
f 22//22 55//55 23//23
f 55//55 56//56 23//23
f 23//23 56//56 24//24
f 56//56 57//57 24//24
f 24//24 57//57 25//25
f 57//57 58//58 25//25
f 25//25 58//58 26//26
f 58//58 59//59 26//26
f 26//26 59//59 27//27
f 59//59 60//60 27//27
f 27//27 60//60 28//28
f 60//60 61//61 28//28
f 28//28 61//61 29//29
f 61//61 62//62 29//29
f 29//29 62//62 30//30
f 62//62 63//63 30//30
f 30//30 63//63 31//31
f 63//63 64//64 31//31
f 31//31 64//64 32//32
f 64//64 65//65 32//32
f 32//32 65//65 33//33
f 65//65 66//66 33//33
f 100//100 99//99 67//67
f 101//101 100//100 68//68
f 102//102 101//101 69//69
f 103//103 102//102 70//70
f 104//104 103//103 71//71
f 105//105 104//104 72//72
f 106//106 105//105 73//73
f 107//107 106//106 74//74
f 108//108 107//107 75//75
f 109//109 108//108 76//76
f 110//110 109//109 77//77
f 111//111 110//110 78//78
f 112//112 111//111 79//79
f 113//113 112//112 80//80
f 114//114 113//113 81//81
f 115//115 114//114 82//82
f 116//116 115//115 83//83
f 117//117 116//116 84//84
f 118//118 117//117 85//85
f 119//119 118//118 86//86
f 120//120 119//119 87//87
f 121//121 120//120 88//88
f 122//122 121//121 89//89
f 123//123 122//122 90//90
f 124//124 123//123 91//91
f 125//125 124//124 92//92
f 126//126 125//125 93//93
f 127//127 126//126 94//94
f 128//128 127//127 95//95
f 129//129 128//128 96//96
f 130//130 129//129 97//97
f 131//131 130//130 98//98
