# BubblePrint Test Model: Pyramid
v 0 7.5 0
v 0 7.5 0
v 0 7.5 0
v 0 7.5 0
v 0 7.5 0
v 0 -7.5 10
v 10 -7.5 6.123233998228043e-16
v 1.2246467996456087e-15 -7.5 -10
v -10 -7.5 -1.8369700935892946e-15
v -2.4492935992912173e-15 -7.5 10
v 0 -7.5 0
v 0 -7.5 0
v 0 -7.5 0
v 0 -7.5 0
v 0 -7.5 10
v 10 -7.5 6.123233998228043e-16
v 1.2246467996456087e-15 -7.5 -10
v -10 -7.5 -1.8369700935892946e-15
v -2.4492935992912173e-15 -7.5 10
vn 0 0.5547001957893372 0.8320503234863281
vn 0.8320503234863281 0.5547001957893372 5.0948386576468374e-17
vn 1.0189677315293675e-16 0.5547001957893372 -0.8320503234863281
vn -0.8320503234863281 0.5547001957893372 -1.5284516303812757e-16
vn -2.037935463058735e-16 0.5547001957893372 0.8320503234863281
vn 0 0.5547001957893372 0.8320503234863281
vn 0.8320503234863281 0.5547001957893372 5.0948386576468374e-17
vn 1.0189677315293675e-16 0.5547001957893372 -0.8320503234863281
vn -0.8320503234863281 0.5547001957893372 -1.5284516303812757e-16
vn -2.037935463058735e-16 0.5547001957893372 0.8320503234863281
vn 0 -1 0
vn 0 -1 0
vn 0 -1 0
vn 0 -1 0
vn 0 -1 0
vn 0 -1 0
vn 0 -1 0
vn 0 -1 0
vn 0 -1 0
f 1//1 6//6 2//2
f 6//6 7//7 2//2
f 2//2 7//7 3//3
f 7//7 8//8 3//3
f 3//3 8//8 4//4
f 8//8 9//9 4//4
f 4//4 9//9 5//5
f 9//9 10//10 5//5
f 16//16 15//15 11//11
f 17//17 16//16 12//12
f 18//18 17//17 13//13
f 19//19 18//18 14//14
